<svg width="136" height="19" viewBox="0 0 136 19" fill="none" xmlns="http://www.w3.org/2000/svg">
<path d="M9.9275 18.1188C7.03 18.1188 4.76583 17.3983 3.135 15.9575C1.52 14.5008 0.7125 12.3475 0.7125 9.4975C0.7125 6.66333 1.53583 4.52583 3.1825 3.085C4.845 1.62833 7.25167 0.899999 10.4025 0.899999H19.4275V3.9875H10.6638C8.58958 3.9875 7.05375 4.42292 6.05625 5.29375C5.07458 6.16458 4.58375 7.56583 4.58375 9.4975C4.58375 11.3342 5.01917 12.6958 5.89 13.5825C6.76083 14.4533 8.03542 14.9283 9.71375 15.0075V8.405H20.3538V18.1188H9.9275ZM13.2763 15.0312H16.5538V11.4925H13.2763V15.0312ZM23.9105 18V1.01875H42.5305V4.10625H27.7105V7.85875H41.153V10.9462H27.7105V14.9125H42.5305V18H23.9105ZM45.3699 18V1.06625H49.1699V7.9775H54.8224L60.4037 1.06625H65.1299L58.1474 9.52125L65.1299 18H60.4037L54.7987 11.065H49.1699V18H45.3699ZM66.6763 9.61625V1.01875H87.5763V9.61625H83.7288V4.10625H78.5513V18H74.7513V4.10625H70.5238V9.61625H66.6763ZM99.1123 18.1188C96.0881 18.1188 93.7448 17.3983 92.0823 15.9575C90.4198 14.5008 89.5885 12.3475 89.5885 9.4975C89.5885 6.66333 90.4198 4.52583 92.0823 3.085C93.7448 1.62833 96.1435 0.899999 99.2785 0.899999H103.554C106.689 0.899999 109.087 1.62833 110.75 3.085C112.412 4.52583 113.244 6.66333 113.244 9.4975C113.244 12.3475 112.412 14.5008 110.75 15.9575C109.087 17.3983 106.728 18.1188 103.672 18.1188H99.1123ZM99.5398 3.9875C97.7823 3.9875 96.4127 4.30417 95.431 4.9375C94.4494 5.57083 93.8319 6.57625 93.5785 7.95375H109.254C109 6.57625 108.383 5.57083 107.401 4.9375C106.419 4.30417 105.05 3.9875 103.292 3.9875H99.5398ZM99.611 15.0312H103.292C105.066 15.0312 106.435 14.7146 107.401 14.0812C108.383 13.4479 109 12.4346 109.254 11.0412H93.5785C93.8319 12.4346 94.4494 13.4479 95.431 14.0812C96.4127 14.7146 97.806 15.0312 99.611 15.0312ZM115.848 18V1.01875H130.074C131.832 1.01875 133.193 1.46208 134.159 2.34875C135.141 3.23542 135.632 4.58125 135.632 6.38625C135.632 7.92208 135.276 9.12542 134.563 9.99625C133.851 10.8671 132.837 11.4133 131.523 11.635L135.442 18H131.119L127.486 11.7537H119.648V18H115.848ZM129.623 4.10625H119.648V8.6425L129.623 8.66625C130.32 8.66625 130.85 8.49208 131.214 8.14375C131.594 7.79542 131.784 7.20958 131.784 6.38625C131.784 5.54708 131.594 4.96125 131.214 4.62875C130.85 4.28042 130.32 4.10625 129.623 4.10625Z" fill="#D9D9D9"/>
</svg>

<svg width="26" height="15" viewBox="0 0 26 15" fill="none" xmlns="http://www.w3.org/2000/svg">
<path opacity="0.6" d="M5.65 14.285C4.75067 14.285 3.978 14.1583 3.332 13.905C2.686 13.639 2.14767 13.2717 1.717 12.803C1.299 12.3343 0.988667 11.7833 0.786 11.15C0.583333 10.5167 0.482 9.82 0.482 9.06V0.833H2.895V8.832C2.895 9.42733 2.95833 9.94033 3.085 10.371C3.22433 10.789 3.41433 11.131 3.655 11.397C3.90833 11.663 4.19967 11.8593 4.529 11.986C4.871 12.1127 5.251 12.176 5.669 12.176C6.087 12.176 6.467 12.1127 6.809 11.986C7.151 11.8593 7.44233 11.663 7.683 11.397C7.93633 11.131 8.12633 10.789 8.253 10.371C8.39233 9.94033 8.462 9.42733 8.462 8.832V0.833H10.875V9.06C10.875 9.82 10.7673 10.5167 10.552 11.15C10.3493 11.7833 10.0327 12.3343 9.602 12.803C9.184 13.2717 8.64567 13.639 7.987 13.905C7.32833 14.1583 6.54933 14.285 5.65 14.285ZM22.6994 14C22.522 13.4807 22.3384 12.9677 22.1484 12.461C21.9584 11.9543 21.7747 11.435 21.5974 10.903H16.0494C15.872 11.435 15.6884 11.9607 15.4984 12.48C15.321 12.9867 15.1437 13.4933 14.9664 14H12.4774C12.9714 12.594 13.44 11.2957 13.8834 10.105C14.3267 8.91433 14.7574 7.787 15.1754 6.723C15.606 5.659 16.0304 4.64567 16.4484 3.683C16.8664 2.72033 17.297 1.77033 17.7404 0.833H20.0014C20.4447 1.77033 20.8754 2.72033 21.2934 3.683C21.7114 4.64567 22.1294 5.659 22.5474 6.723C22.978 7.787 23.415 8.91433 23.8584 10.105C24.3144 11.2957 24.7894 12.594 25.2834 14H22.6994ZM18.8234 3.379C18.532 4.05033 18.1964 4.86733 17.8164 5.83C17.449 6.79267 17.0627 7.83767 16.6574 8.965H20.9894C20.584 7.83767 20.1914 6.78633 19.8114 5.811C19.4314 4.83567 19.102 4.025 18.8234 3.379Z" fill="#FFEEDB"/>
</svg>
<svg width="23" height="14" viewBox="0 0 23 14" fill="none" xmlns="http://www.w3.org/2000/svg">
<path d="M0.577 14V0.833H9.032V2.866H2.971V6.115H8.367V8.11H2.971V11.967H9.488V14H0.577ZM20.7728 14C20.3421 13.278 19.8608 12.5053 19.3288 11.682C18.7968 10.846 18.2458 10.01 17.6758 9.174C17.1058 8.32533 16.5231 7.50833 15.9278 6.723C15.3451 5.925 14.7878 5.20933 14.2558 4.576V14H11.8998V0.833H13.8568C14.3635 1.365 14.9081 1.99833 15.4908 2.733C16.0735 3.455 16.6561 4.20867 17.2388 4.994C17.8341 5.77933 18.4041 6.571 18.9488 7.369C19.5061 8.15433 20.0001 8.889 20.4308 9.573V0.833H22.8058V14H20.7728Z" fill="#FFEEDB"/>
</svg>
