<svg width="169" height="57" viewBox="0 0 169 57" fill="none" xmlns="http://www.w3.org/2000/svg">
<path d="M9.9275 39.1188C7.03 39.1188 4.76583 38.3983 3.135 36.9575C1.52 35.5008 0.7125 33.3475 0.7125 30.4975C0.7125 27.6633 1.53583 25.5258 3.1825 24.085C4.845 22.6283 7.25167 21.9 10.4025 21.9H19.4275V24.9875H10.6638C8.58958 24.9875 7.05375 25.4229 6.05625 26.2937C5.07458 27.1646 4.58375 28.5658 4.58375 30.4975C4.58375 32.3342 5.01917 33.6958 5.89 34.5825C6.76083 35.4533 8.03542 35.9283 9.71375 36.0075V29.405H20.3538V39.1188H9.9275ZM13.2763 36.0312H16.5538V32.4925H13.2763V36.0312ZM23.9105 39V22.0187H42.5305V25.1062H27.7105V28.8587H41.153V31.9462H27.7105V35.9125H42.5305V39H23.9105ZM45.3699 39V22.0662H49.1699V28.9775H54.8224L60.4037 22.0662H65.1299L58.1474 30.5212L65.1299 39H60.4037L54.7987 32.065H49.1699V39H45.3699ZM66.6763 30.6162V22.0187H87.5763V30.6162H83.7288V25.1062H78.5513V39H74.7513V25.1062H70.5238V30.6162H66.6763ZM99.1123 39.1188C96.0881 39.1188 93.7448 38.3983 92.0823 36.9575C90.4198 35.5008 89.5885 33.3475 89.5885 30.4975C89.5885 27.6633 90.4198 25.5258 92.0823 24.085C93.7448 22.6283 96.1435 21.9 99.2785 21.9H103.554C106.689 21.9 109.087 22.6283 110.75 24.085C112.412 25.5258 113.244 27.6633 113.244 30.4975C113.244 33.3475 112.412 35.5008 110.75 36.9575C109.087 38.3983 106.728 39.1188 103.672 39.1188H99.1123ZM99.5398 24.9875C97.7823 24.9875 96.4127 25.3042 95.431 25.9375C94.4494 26.5708 93.8319 27.5762 93.5785 28.9537H109.254C109 27.5762 108.383 26.5708 107.401 25.9375C106.419 25.3042 105.05 24.9875 103.292 24.9875H99.5398ZM99.611 36.0312H103.292C105.066 36.0312 106.435 35.7146 107.401 35.0812C108.383 34.4479 109 33.4346 109.254 32.0412H93.5785C93.8319 33.4346 94.4494 34.4479 95.431 35.0812C96.4127 35.7146 97.806 36.0312 99.611 36.0312ZM115.848 39V22.0187H130.074C131.832 22.0187 133.193 22.4621 134.159 23.3487C135.141 24.2354 135.632 25.5812 135.632 27.3862C135.632 28.9221 135.276 30.1254 134.563 30.9962C133.851 31.8671 132.837 32.4133 131.523 32.635L135.442 39H131.119L127.486 32.7537H119.648V39H115.848ZM129.623 25.1062H119.648V29.6425L129.623 29.6662C130.32 29.6662 130.85 29.4921 131.214 29.1437C131.594 28.7954 131.784 28.2096 131.784 27.3862C131.784 26.5471 131.594 25.9612 131.214 25.6287C130.85 25.2804 130.32 25.1062 129.623 25.1062Z" fill="#D9D9D9"/>
</svg>
