<svg width="29" height="29" viewBox="0 0 29 29" fill="none" xmlns="http://www.w3.org/2000/svg">
<rect width="29" height="29" fill="black" fill-opacity="0.2"/>
<path d="M13.7778 13.8794V19.9997C13.7778 20.318 13.9065 20.6232 14.1358 20.8483C14.365 21.0733 14.6758 21.1998 15 21.1998C15.3242 21.1998 15.635 21.0733 15.8642 20.8483C16.0935 20.6232 16.2222 20.318 16.2222 19.9997V13.8794C17.7061 13.582 19.0246 12.7542 19.9221 11.5566C20.8197 10.3589 21.2324 8.87666 21.0802 7.39722C20.9279 5.91778 20.2217 4.54654 19.0983 3.54933C17.9749 2.55212 16.5144 2 15 2C13.4856 2 12.0251 2.55212 10.9017 3.54933C9.77831 4.54654 9.07205 5.91778 8.91983 7.39722C8.76762 8.87666 9.1803 10.3589 10.0779 11.5566C10.9754 12.7542 12.2939 13.582 13.7778 13.8794ZM15 4.3989C15.7252 4.3989 16.4341 4.61005 17.0371 5.00564C17.6401 5.40123 18.11 5.9635 18.3876 6.62135C18.6651 7.2792 18.7377 8.00308 18.5962 8.70144C18.4547 9.39981 18.1055 10.0413 17.5927 10.5448C17.0799 11.0483 16.4266 11.3912 15.7153 11.5301C15.0041 11.669 14.2668 11.5977 13.5968 11.3252C12.9268 11.0527 12.3542 10.5913 11.9513 9.99924C11.5484 9.40719 11.3333 8.71113 11.3333 7.99908C11.3333 7.04425 11.7196 6.12853 12.4073 5.45337C13.0949 4.7782 14.0275 4.3989 15 4.3989ZM20.1456 16.9035C19.9851 16.8704 19.8195 16.8687 19.6583 16.8984C19.4971 16.9282 19.3435 16.9888 19.2061 17.0768C19.0688 17.1649 18.9505 17.2786 18.8579 17.4115C18.7654 17.5445 18.7004 17.694 18.6667 17.8516C18.633 18.0092 18.6312 18.1717 18.6615 18.33C18.6918 18.4883 18.7535 18.6391 18.8432 18.774C18.9328 18.9088 19.0486 19.025 19.184 19.1159C19.3194 19.2068 19.4717 19.2706 19.6322 19.3037C22.4067 19.8437 23.5556 20.8157 23.5556 21.1998C23.5556 21.8958 20.5611 23.5999 15 23.5999C9.43889 23.5999 6.44444 21.8958 6.44444 21.1998C6.44444 20.8157 7.59333 19.8437 10.3678 19.2557C10.5283 19.2226 10.6806 19.1588 10.816 19.0679C10.9514 18.977 11.0672 18.8608 11.1568 18.726C11.2465 18.5911 11.3082 18.4403 11.3385 18.282C11.3688 18.1237 11.367 17.9612 11.3333 17.8036C11.2996 17.646 11.2346 17.4965 11.1421 17.3635C11.0495 17.2306 10.9312 17.1169 10.7939 17.0288C10.6565 16.9408 10.5029 16.8802 10.3417 16.8504C10.1805 16.8207 10.0149 16.8224 9.85444 16.8555C6.13889 17.6956 4 19.2677 4 21.1998C4 24.3559 9.53667 26 15 26C20.4633 26 26 24.3559 26 21.1998C26 19.2677 23.8611 17.6956 20.1456 16.9035Z" fill="#FFEEDB"/>
</svg>
