<svg width="29" height="29" viewBox="0 0 29 29" fill="none" xmlns="http://www.w3.org/2000/svg">
<path d="M14.5 2C7.5971 2 2 7.5971 2 14.5C2 21.4029 7.5971 27 14.5 27C21.4029 27 27 21.4029 27 14.5C27 7.5971 21.4029 2 14.5 2ZM14.5 24.8795C8.76897 24.8795 4.12054 20.231 4.12054 14.5C4.12054 8.76897 8.76897 4.12054 14.5 4.12054C20.231 4.12054 24.8795 8.76897 24.8795 14.5C24.8795 20.231 20.231 24.8795 14.5 24.8795Z" fill="#FFEEDB"/>
<path d="M19.905 18.4438L15.8312 15.4412V8.23299C15.8312 8.10485 15.7284 8 15.6027 8H14.2285C14.1028 8 14 8.10485 14 8.23299V16.2537C14 16.3294 14.0343 16.3993 14.0943 16.443L18.8194 19.9554C18.9222 20.0311 19.0651 20.0078 19.1394 19.9058L19.9564 18.77C20.0307 18.6623 20.0078 18.5166 19.905 18.4438Z" fill="#FFEEDB"/>
</svg>
