<svg width="29" height="29" viewBox="0 0 29 29" fill="none" xmlns="http://www.w3.org/2000/svg">
<path d="M27.3952 0C27.8357 0 28.2133 0.157335 28.528 0.472005C28.8427 0.786675 29 1.16428 29 1.60482V27.3952C29 27.8357 28.8427 28.2133 28.528 28.528C28.2133 28.8427 27.8357 29 27.3952 29H20.013V17.7663H23.7702L24.3366 13.3861H20.013V10.5918C20.013 9.88694 20.1609 9.35829 20.4567 9.00586C20.7525 8.65343 21.3283 8.47721 22.1842 8.47721L24.4876 8.45833V4.55013C23.6947 4.43685 22.5744 4.38021 21.127 4.38021C19.4151 4.38021 18.0463 4.88368 17.0205 5.89062C15.9947 6.89757 15.4818 8.31988 15.4818 10.1576V13.3861H11.7057V17.7663H15.4818V29H1.60482C1.16428 29 0.786675 28.8427 0.472005 28.528C0.157335 28.2133 0 27.8357 0 27.3952V1.60482C0 1.16428 0.157335 0.786675 0.472005 0.472005C0.786675 0.157335 1.16428 0 1.60482 0H27.3952Z" fill="#FFEEDB"/>
</svg>
