<svg width="29" height="29" viewBox="0 0 29 29" fill="none" xmlns="http://www.w3.org/2000/svg">
<path d="M24.9967 6.64217L21.9348 3.58355C21.5611 3.20985 21.0608 3 20.5318 3C20.0028 3 19.5026 3.20697 19.1288 3.58355L15.8312 6.87502C15.4574 7.24872 15.2476 7.75178 15.2476 8.28072C15.2476 8.81252 15.4546 9.30984 15.8312 9.68641L18.4072 12.265C17.8204 13.6321 16.9772 14.8743 15.9232 15.9244C14.8681 16.9851 13.6347 17.8216 12.2662 18.4138L9.69015 15.8353C9.3164 15.4616 8.81615 15.2517 8.28715 15.2517C8.02622 15.2508 7.76773 15.3019 7.52681 15.4021C7.28589 15.5023 7.0674 15.6496 6.88414 15.8353L3.58363 19.1267C3.20988 19.5004 3 20.0035 3 20.5324C3 21.0642 3.207 21.5616 3.58363 21.9381L6.64264 24.9968C7.28089 25.6349 8.16065 26 9.0634 26C9.25028 26 9.4314 25.9856 9.6154 25.954C13.4219 25.3273 17.1997 23.3007 20.2501 20.2536C23.2976 17.2007 25.3216 13.4234 25.9541 9.61455C26.1352 8.53368 25.773 7.4212 24.9967 6.64217ZM23.9157 9.27247C23.3551 12.6617 21.5323 16.0422 18.7867 18.7875C16.0411 21.5328 12.6629 23.3553 9.27328 23.9159C8.84778 23.9878 8.41077 23.844 8.10027 23.5364L5.09588 20.5324L8.2814 17.3445L11.7257 20.794L11.7515 20.8199L12.3725 20.5899C14.2555 19.8977 15.9653 18.8044 17.3837 17.3858C18.802 15.9672 19.8948 14.2571 20.5865 12.3742L20.8165 11.7533L17.3434 8.28359L20.529 5.09561L23.5333 8.09961C23.8438 8.41007 23.9876 8.84702 23.9157 9.27247Z" fill="#FFEEDB"/>
</svg>
